<svg xmlns="http://www.w3.org/2000/svg" width="16" height="17">
    <defs>
        <filter id="aug9ehl79a">
            <feFlood flood-color="#6E774A" flood-opacity="1" result="floodOut"/>
            <feComposite in="floodOut" in2="SourceGraphic" operator="atop" result="compOut"/>
            <feBlend in="compOut" in2="SourceGraphic"/>
        </filter>
    </defs>
    <g filter="url(#aug9ehl79a)">
        <path fill-rule="evenodd" d="M15.292 6.11l-4.407-.412c-.278-.025-.518-.2-.631-.463L8.675 1.451c-.252-.624-1.149-.624-1.401 0L5.708 5.235c-.101.263-.353.438-.631.463L.67 6.11c-.656.062-.921.874-.429 1.311l3.321 2.885c.214.187.303.462.24.736l-.998 4.046c-.151.638.543 1.162 1.124.825l3.674-2.136c.24-.137.531-.137.77 0l3.675 2.136c.58.337 1.275-.175 1.123-.825l-.984-4.046c-.064-.274.025-.549.239-.736l3.321-2.885c.48-.437.202-1.249-.454-1.311z"/>
    </g>
</svg>
