<svg xmlns="http://www.w3.org/2000/svg" width="26" height="15">
    <defs>
        <filter id="ytvpm7o1da">
            <feFlood flood-color="#6E774A" flood-opacity="1" result="floodOut"/>
            <feComposite in="floodOut" in2="SourceGraphic" operator="atop" result="compOut"/>
            <feBlend in="compOut" in2="SourceGraphic"/>
        </filter>
    </defs>
    <g filter="url(#ytvpm7o1da)">
        <path fill-rule="evenodd" d="M24.828 7.079l-5.68-5.904c-.204-.248-.562-.277-.801-.064-.238.211-.266.584-.062.832.019.023.04.045.062.064l4.709 4.9H.568c-.314 0-.568.264-.568.591 0 .326.254.59.568.59h22.488l-4.709 4.894c-.238.212-.266.585-.062.832.204.248.563.277.801.065.022-.02.043-.041.062-.065l5.68-5.903c.221-.23.221-.602 0-.832z"/>
    </g>
</svg>
